<?xml version="1.0" standalone="no"?>
<!DOCTYPE svg PUBLIC "-//W3C//DTD SVG 20010904//EN"
 "http://www.w3.org/TR/2001/REC-SVG-20010904/DTD/svg10.dtd">
<svg version="1.0" xmlns="http://www.w3.org/2000/svg"
 width="700.000000pt" height="700.000000pt" viewBox="0 0 700.000000 700.000000"
 preserveAspectRatio="xMidYMid meet">
<g transform="translate(0.000000,700.000000) scale(0.100000,-0.100000)"
fill="#000000" stroke="none">
<path d="M3278 6995 c-2 -1 -42 -5 -89 -9 -47 -4 -95 -8 -105 -10 -10 -2 -46
-7 -79 -11 -32 -4 -68 -9 -80 -11 -11 -2 -45 -9 -75 -15 -30 -5 -66 -12 -80
-15 -152 -30 -404 -107 -595 -184 -93 -36 -337 -156 -410 -200 -27 -17 -58
-33 -67 -36 -10 -4 -18 -10 -18 -15 0 -5 -5 -9 -11 -9 -14 0 -141 -85 -274
-185 -442 -331 -804 -771 -1046 -1272 -32 -68 -59 -125 -59 -128 0 -3 -9 -24
-20 -48 -57 -123 -157 -435 -186 -582 -2 -11 -10 -54 -19 -95 -47 -238 -60
-386 -60 -675 1 -197 6 -311 20 -412 10 -67 14 -99 20 -148 4 -27 10 -66 15
-85 5 -19 12 -51 15 -70 23 -133 98 -381 176 -580 56 -144 184 -402 252 -508
26 -40 47 -75 47 -78 0 -2 4 -10 10 -17 5 -7 46 -64 91 -126 200 -285 463
-554 744 -766 44 -33 82 -63 83 -67 2 -5 8 -8 14 -8 6 0 27 -12 47 -28 20 -15
43 -31 53 -37 9 -5 61 -37 115 -69 204 -124 489 -254 718 -326 170 -53 239
-72 360 -96 131 -26 150 -29 219 -39 163 -23 279 -30 511 -30 247 1 321 6 553
41 134 20 385 81 531 130 82 27 236 86 246 94 6 4 21 11 35 15 41 13 248 114
339 166 46 27 86 49 88 49 2 0 9 5 16 10 7 6 64 45 127 87 239 158 474 362
659 572 31 35 63 72 72 81 88 94 291 391 386 565 53 97 143 281 143 291 0 2
11 27 24 56 57 127 151 421 182 573 17 81 54 301 59 350 4 33 9 71 11 85 9 49
11 526 3 614 -12 132 -26 239 -35 279 -1 4 -2 19 -3 35 -3 61 135 56 -1691 57
-1021 0 -1674 -4 -1678 -9 -3 -5 -6 -317 -6 -693 l-1 -683 937 0 c888 0 937
-1 931 -17 -3 -10 -35 -79 -70 -153 -105 -219 -231 -397 -400 -566 -205 -205
-412 -343 -703 -467 -105 -45 -331 -107 -445 -122 -27 -4 -61 -9 -75 -12 -14
-3 -110 -6 -215 -8 -251 -5 -428 19 -655 90 -109 34 -202 71 -273 107 -34 18
-64 32 -67 33 -3 0 -42 23 -88 50 -46 28 -91 55 -100 60 -62 36 -229 173 -310
254 -343 343 -541 744 -608 1231 -12 94 -12 430 0 515 50 335 154 611 330 880
283 430 720 742 1221 870 55 14 116 28 135 31 19 3 42 7 50 9 73 19 455 27
570 13 308 -40 602 -142 839 -290 21 -13 23 -12 193 128 41 33 155 127 253
208 99 81 214 175 255 209 41 34 83 69 94 77 10 8 38 31 61 50 23 19 100 82
170 139 l128 105 -38 33 c-21 18 -94 72 -162 120 -347 247 -721 425 -1118 532
-105 28 -294 68 -359 77 -17 2 -42 6 -56 9 -13 2 -54 7 -90 11 -36 3 -78 8
-95 11 -33 5 -531 13 -537 8z"/>
</g>
</svg>
